<?xml version="1.0" standalone="no"?>
<!DOCTYPE svg PUBLIC "-//W3C//DTD SVG 20010904//EN" "http://www.w3.org/TR/2001/REC-SVG-20010904/DTD/svg10.dtd">
<!-- Created using Krita: https://krita.org -->
<svg xmlns="http://www.w3.org/2000/svg" 
    xmlns:xlink="http://www.w3.org/1999/xlink"
    xmlns:krita="http://krita.org/namespaces/svg/krita"
    xmlns:sodipodi="http://sodipodi.sourceforge.net/DTD/sodipodi-0.dtd"
    width="368.64pt"
    height="368.64pt"
    viewBox="0 0 368.64 368.64">
<defs/>
<path id="shape0" transform="matrix(0.999999960263572 0 0 0.999999960263572 43.7569040644418 13.6800006050371)" fill="#ada485" fill-rule="evenodd" stroke="#dcdcdc" stroke-width="0.72" stroke-linecap="square" stroke-linejoin="bevel" d="M28.6572 105.268C78.1687 76.9937 128.257 55.5788 179.803 51.4832C162.944 44.4698 150.357 27.3769 153.666 0L3.77547 42.4677C-8.39684 61.5581 11.2661 98.126 28.6572 105.268Z"/><path id="shape0" transform="translate(61.9200035068636, 38.1600020388742)" fill="#e8eac8" fill-rule="evenodd" stroke="#cccccc" stroke-width="0.72" stroke-linecap="square" stroke-linejoin="bevel" d="M0 51.48C47.88 34.32 126.363 16.0266 143.64 0C158.102 3.55785 160.544 16.4472 159.84 26.64C107.468 34.9171 57.7729 52.5652 11.16 81C12.5787 73.2666 10.8843 59.0874 0 51.48Z"/><path id="shape01" transform="matrix(0.945272664088894 -0.326281337274185 0.326281337274185 0.945272664088894 29.7204797588152 63.8084943484094)" fill="#fffad8" fill-rule="evenodd" stroke="#ffffff" stroke-width="0.72" stroke-linecap="square" stroke-linejoin="bevel" d="M20.8023 0L176.079 8.8938C224.647 107.7 105.922 192.508 197.601 312.972L37.7723 297.236C-62.3127 172.133 74.3199 108.976 20.8023 0Z"/><path id="shape02" transform="matrix(0.999999960263572 0 0 0.999999960263572 145.272277168772 239.445057018236)" fill="#e3d7af" fill-rule="evenodd" stroke="#e3d7af" stroke-width="3.6" stroke-linecap="square" stroke-linejoin="bevel" d="M0 41.8782C85.7473 35.6228 114.691 27.178 139.553 0C170.898 3.76303 173.06 37.2788 172.289 55.0791L14.5986 92.835C27.5108 83.4674 28.8497 70.9142 22.9913 60.4245C19.952 52.1305 11.66 45.0983 0 41.8782Z"/><path id="shape1" transform="translate(151.200001614231, 27.7200005530993)" fill="none" stroke="#000000" stroke-width="2.16" stroke-linecap="square" stroke-linejoin="bevel" d="M112.68 0C50.76 95.04 13.2 164.52 0 208.44"/><path id="shape2" transform="translate(164.181939247823, 27.5278107180329)" fill="#9e0201" fill-rule="evenodd" stroke="#000000" stroke-width="2.16" stroke-linecap="square" stroke-linejoin="bevel" d="M0.698065 169.752C7.26345 163.187 -3.2123 141.213 1.05807 132.672C6.17211 122.444 11.1381 128.937 11.1381 113.232C11.1381 111.484 9.94438 106.999 8.97807 106.032C8.74111 105.795 7.7357 100.795 8.25807 100.272C10.7067 97.8236 18.0524 96.6226 21.2181 94.5122C28.1541 89.8882 22.2252 72.338 25.5381 65.7122C27.5773 61.6337 36.8399 63.2685 39.2181 58.5122C43.0755 50.7973 43.5275 41.9732 47.4981 34.0322C49.6378 29.7528 60.6714 35.7655 63.6981 29.7122C69.3175 18.4734 73.7085 8.77209 84.2084 3.52211C89.0297 1.11148 95.7893 -0.589563 99.6981 0.19219"/><path id="shape3" transform="translate(164.880004630231, 27.7200005530993)" fill="#9e0201" fill-rule="evenodd" stroke="#000000" stroke-width="2.16" stroke-linecap="square" stroke-linejoin="bevel" d="M99 0C99.973 0.185783 102.758 8.07828 103.32 8.64C109.039 14.3594 88.8639 33.4426 97.02 38.88C99.8271 40.7514 95.6831 49.7569 93.6 51.84C89.6252 55.8148 85.4796 56.6671 83.0013 61.6238C81.2042 64.4033 85.5584 83.5801 66.7095 87.0796C64.6158 104.599 62.708 105.115 52.1997 110.754C47.8592 129.963 48.982 125.589 46.5994 130.355C46.5794 129.161 33.4737 132.686 32.8532 145.374C36.7958 146.41 5.68296 164.964 0 169.56"/><path id="shape4" transform="translate(150.840001177209, 27.3600004013892)" fill="none" stroke="#451d1e" stroke-width="2.16" stroke-linecap="square" stroke-linejoin="bevel" d="M0 207C4.08 184.2 41.52 115.2 112.32 0C50.0345 105.641 17.7887 161.856 15.5826 168.644"/>
</svg>
